<mxfile host="app.diagrams.net" modified="2023-11-01T03:02:36.982Z" agent="Mozilla/5.0 (Macintosh; Intel Mac OS X 10_15_7) AppleWebKit/537.36 (KHTML, like Gecko) Chrome/118.0.0.0 Safari/537.36 Edg/118.0.2088.76" version="21.3.8" etag="kslJlzXLQWnXkNFN-_RE" type="github">
  <diagram name="第 1 页" id="_f0jQLligPuGgjY3-sxE">
    <mxGraphModel>
      <root>
        <mxCell id="0" />
        <mxCell id="1" parent="0" />
      </root>
    </mxGraphModel>
  </diagram>
</mxfile>
